<svg xmlns="http://www.w3.org/2000/svg" version="1.0" width="600.000000" height="600.000000" preserveAspectRatio="xMidYMid meet" style=""><rect id="backgroundrect" width="100%" height="100%" x="0" y="0" fill="none" stroke="none"/>
<metadata>
Created by potrace 1.15, written by Peter Selinger 2001-2017
</metadata>

<g class="currentLayer" style=""><title>Layer 1</title><g transform="translate(0,600) scale(0.10000000149011612,-0.10000000149011612) " fill="#ffffff" stroke="none" id="svg_1" class="selected" fill-opacity="1">
<path d="M804.0650405883789,2999 c0,-2293 2,-2561 15,-2555 c27,10 4425,2551 4425,2556 c0,6 -4423,2560 -4433,2560 c-4,0 -7,-1152 -7,-2561 zm2178,1210 c1143,-660 2078,-1203 2080,-1207 c1,-5 -928,-546 -2065,-1202 c-1137,-657 -2078,-1200 -2090,-1208 l-23,-14 l0,2421 c0,1745 3,2420 11,2415 c6,-3 945,-546 2087,-1205 z" id="svg_2" fill="#ffffff" fill-opacity="1"/>
</g></g></svg>